<svg xmlns="http://www.w3.org/2000/svg" width="29" height="29" viewBox="0 0 29 29">
  <g id="Group_288" data-name="Group 288" transform="translate(-456 -267)">
    <g id="Group_759" data-name="Group 759">
      <g id="Path_265" data-name="Path 265" transform="translate(456 267)" fill="#fff">
        <path d="M 14.5 28.5 C 10.76045989990234 28.5 7.244760036468506 27.04375076293945 4.600500106811523 24.39949989318848 C 1.956249952316284 21.75523948669434 0.5 18.23954010009766 0.5 14.5 C 0.5 10.76045989990234 1.956249952316284 7.244760036468506 4.600500106811523 4.600500106811523 C 7.244760036468506 1.956249952316284 10.76045989990234 0.5 14.5 0.5 C 18.23954010009766 0.5 21.75523948669434 1.956249952316284 24.39949989318848 4.600500106811523 C 27.04375076293945 7.244760036468506 28.5 10.76045989990234 28.5 14.5 C 28.5 18.23954010009766 27.04375076293945 21.75523948669434 24.39949989318848 24.39949989318848 C 21.75523948669434 27.04375076293945 18.23954010009766 28.5 14.5 28.5 Z" stroke="none"/>
        <path d="M 14.5 1 C 10.89402008056641 1 7.503870010375977 2.404239654541016 4.954059600830078 4.954059600830078 C 2.404239654541016 7.503870010375977 1 10.89402008056641 1 14.5 C 1 18.10597991943359 2.404239654541016 21.49612998962402 4.954059600830078 24.04594039916992 C 7.503870010375977 26.59576034545898 10.89402008056641 28 14.5 28 C 18.10597991943359 28 21.49612998962402 26.59576034545898 24.04594039916992 24.04594039916992 C 26.59576034545898 21.49612998962402 28 18.10597991943359 28 14.5 C 28 10.89402008056641 26.59576034545898 7.503870010375977 24.04594039916992 4.954059600830078 C 21.49612998962402 2.404239654541016 18.10597991943359 1 14.5 1 M 14.5 0 C 22.50812911987305 0 29 6.491870880126953 29 14.5 C 29 22.50812911987305 22.50812911987305 29 14.5 29 C 6.491870880126953 29 0 22.50812911987305 0 14.5 C 0 6.491870880126953 6.491870880126953 0 14.5 0 Z" stroke="none" fill="#907575"/>
      </g>
      <path id="Path_264" data-name="Path 264" d="M9.5,0A9.5,9.5,0,1,1,0,9.5,9.5,9.5,0,0,1,9.5,0Z" transform="translate(461 272)" fill="#bfa8a8"/>
      <g id="Ellipse_41" data-name="Ellipse 41" transform="translate(466 278)" fill="#fff" stroke="#715b5b" stroke-width="1">
        <circle cx="1" cy="1" r="1" stroke="none"/>
        <circle cx="1" cy="1" r="0.5" fill="none"/>
      </g>
      <g id="Ellipse_42" data-name="Ellipse 42" transform="translate(472 278)" fill="#fff" stroke="#715b5b" stroke-width="1">
        <circle cx="1" cy="1" r="1" stroke="none"/>
        <circle cx="1" cy="1" r="0.5" fill="none"/>
      </g>
      <path id="Path_211" data-name="Path 211" d="M478,287.42c7.02,1.794,8.1-2.258,8.1-2.258" transform="translate(-11.282 -2.506)" fill="none" stroke="#715b5b" stroke-width="1"/>
    </g>
  </g>
</svg>
